<?xml version="1.0" encoding="UTF-8"?>
<svg xmlns="http://www.w3.org/2000/svg" viewBox="0 0 1931.95 1103.96">
  <g id="_1行目" data-name="1行目">
    <g>
      <path d="M423.1,403.55c-.12,27.4-2.02,37.72-5.93,49.1-3.68,10.44-10.44,21.35-19.93,29.53-.59.47-1.54-.24-1.07-.83,4.63-6.29,7.47-14.59,9.25-25.14,1.9-11.5,2.85-21.23,2.85-48.75,0-22.77-.24-27.28-.95-32.85,14.94,3.2,18.27,4.63,18.98,5.81h55.63c6.17-6.76,6.64-7,7.83-7,1.3,0,1.9.12,7.83,4.74,4.03,3.08,4.51,3.8,4.51,4.74,0,1.19-.24,1.54-3.68,4.03v5.1c0,5.1.47,10.91.47,12.81,0,3.56-3.91,5.57-10.08,5.57-4.51,0-5.22-1.07-5.22-4.27v-2.61h-60.49ZM483.59,401.18v-18.38h-58.12c-.47.47-1.3.95-2.37,1.42v16.96h60.49ZM482.29,427.75c5.69-6.64,6.29-7.12,7.47-7.12,1.3,0,1.9.12,8.9,5.69,3.56,2.85,3.91,3.44,3.91,4.51,0,1.19-.59,1.78-3.8,4.15v14.11c0,20.87.71,26.69.71,28.82,0,3.44-3.8,5.22-9.84,5.22-4.74,0-5.69-1.07-5.69-4.15v-3.68h-44.48v4.27c0,3.44-3.56,5.22-9.25,5.22-4.15,0-5.22-1.07-5.22-4.15,0-2.37.71-14.35.71-33.33,0-17.44,0-21.35-.36-26.09,13.17,3.32,16.49,5.1,17.2,6.52h11.74c0-9.37,0-15.42-.83-21.23,16.37,1.66,19.33,2.73,19.33,4.27,0,1.3-.71,2.13-3.91,3.68v13.28h13.4ZM441.84,430.12c-.47.36-1.3.83-2.37,1.19v18.15h14.83v-19.33h-12.45ZM439.47,472.93h14.83v-21.11h-14.83v21.11ZM468.88,430.12v19.33h15.06v-19.33h-15.06ZM483.95,472.93v-21.11h-15.06v21.11h15.06Z" fill="#fff"/>
      <path d="M542.07,426.22c-1.18,8.61-2.01,14.75-2.6,20.64-.35,3.66-.59,5.9-.59,7.55,0,.71,0,1.3.12,1.89.24,1.77.59,4.25.59,5.78,0,4.25-2.83,5.78-6.02,5.78-3.77,0-7.55-3.66-10.38-9.91-2.71-5.78-4.25-13.45-4.25-21.71,0-5.9,1.06-15.81,2.95-25.36,1.65-7.67,2.83-14.51,2.83-17.22,0-2.48-.35-4.95-1.53-7.31-.24-.47-.24-.59-.24-.83s.24-.47.59-.47c.24,0,.35,0,.83.24,3.3,1.77,6.49,4.48,9.08,7.79,2.83,3.66,3.54,5.43,3.54,9.56,0,2.48-1.77,7.08-3.77,12.03-3.3,7.79-5.19,16.04-5.19,21.35,0,3.66.47,7.67,1.18,9.56.47,1.3.94,1.53,1.65,1.53.59,0,1.18-.59,2.36-3.07,2.48-5.43,4.48-10.15,7.67-17.93.24-.59.47-.71.71-.71s.47.24.47.59v.24ZM554.58,480.6c-.71,0-.94-.35-.94-.59s.12-.35.47-.59c13.68-8.02,20.05-20.29,21.59-33.03.59-4.84,1.06-15.22,1.06-27.96-5.9,1.18-10.38,1.77-13.57,1.77-6.02,0-9.67-2.95-14.86-9.79-.35-.47-.35-.59-.35-.83s.24-.47.59-.47c.24,0,.35,0,.71.12,2.6.94,5.19,1.42,7.43,1.42,1.89,0,4.13-.24,6.49-.59,4.25-.59,8.85-1.53,13.45-2.71-.24-4.48-.35-9.08-.59-13.57-.47-4.84-.83-5.78-6.49-6.37-1.18-.12-1.77-.47-1.77-.94,0-.35.35-.83.94-1.42,3.3-2.83,6.13-3.77,7.67-3.77s3.54.47,6.61,2.24c5.31,3.07,6.49,4.6,6.49,6.37,0,1.06-.24,1.53-.71,2.6-.59,1.42-.59,2.6-.71,4.36v7.31c1.18-.35,2.24-.71,3.3-1.06,1.18-.35,2.48-.94,3.54-1.65,5.54-.12,10.26,3.42,10.26,6.61s-1.77,4.25-8.14,5.78c-3.19.71-6.13,1.42-8.85,2.01.12,5.31.35,13.21.35,18.52,0,9.56-.94,15.22-2.6,19.94-4.36,12.5-13.92,20.53-30.91,26.19l-.47.12Z" fill="#fff"/>
      <path d="M648.36,431.64c7.79-4.95,13.8-6.49,20.29-6.49,15.34,0,29.14,8.26,29.14,23.71s-17.58,28.78-36.69,28.78c-12.74,0-20.41-5.66-20.41-13.09,0-5.9,5.78-10.97,13.68-10.97s14.75,4.01,18.4,11.21c6.61-4.36,10.85-9.67,10.85-19.82,0-8.73-7.2-14.39-17.46-14.39-3.66,0-9.56,1.53-14.75,5.07-4.36,2.83-9.67,7.79-15.57,16.4-2.83,4.25-4.36,5.43-7.2,5.43s-6.02-3.3-6.02-7.67c0-2.95.59-4.72,5.07-9.08,5.54-5.54,13.09-14.27,19.82-22.65,6.13-7.55,12.5-16.4,15.22-20.53.35-.59.59-1.06.59-1.3s-.12-.35-.35-.35-.47.12-.83.24c-6.02,2.48-12.39,6.02-17.22,8.97-1.18.94-2.48,1.3-4.01,1.3-1.65,0-3.3-1.3-5.78-4.6-2.24-2.95-2.83-4.25-2.83-6.61,0-1.3.24-2.83.59-4.72.12-.47.24-.71.59-.71s.59.24.83.59c1.89,2.48,4.48,3.54,7.2,3.54,3.42,0,10.26-2.12,23.24-7.79,2.24-1.77,3.77-2.6,5.07-2.6,1.89,0,3.66,1.06,5.43,2.83,4.01,3.77,5.9,6.25,5.9,8.02,0,1.42-.59,2.36-2.71,3.89-2.6,1.89-4.13,3.19-8.97,8.61-7.08,8.02-12.86,14.86-21.23,24.54l.12.24ZM650.37,458.66c-3.89.12-5.78,1.53-5.78,4.72,0,3.66,5.19,6.37,10.03,6.37,3.54,0,5.54-.35,7.67-1.06-2.48-6.61-7.79-10.03-11.91-10.03Z" fill="#fff"/>
      <path d="M748.75,470.92c0-.24.12-.47.47-.59,14.04-4.72,23.48-10.5,31.02-18.4,6.02-6.49,10.15-16.04,10.15-25.48,0-8.85-2.12-15.57-6.96-20.88-6.02-6.37-12.74-9.2-22.18-9.2-1.77,0-3.89,0-5.78.24,4.25,4.95,6.25,8.85,6.25,14.75,0,10.5-10.85,34.68-25.36,45.06-2.83,2.01-5.31,3.07-8.02,3.07-4.01,0-8.14-4.01-10.73-8.61-2.6-4.72-4.25-10.5-4.25-15.93,0-13.33,7.43-25.6,18.76-33.27,9.44-6.25,20.64-9.08,30.44-9.08,13.21,0,23.59,4.95,31.26,12.03,7.43,6.84,11.8,16.63,11.8,26.19,0,10.97-6.25,21.47-14.75,27.37-10.85,7.67-24.06,11.56-41.52,13.33-.47,0-.59-.24-.59-.59ZM721.85,430.7c0,3.42.47,6.84,2.12,9.91,1.3,2.24,3.19,3.66,5.19,3.66,1.65,0,3.54-.59,6.37-3.77,12.27-13.92,18.4-28.9,18.4-37.16,0-1.77-.12-3.77-1.18-6.13-12.86,1.89-30.91,16.52-30.91,33.5Z" fill="#fff"/>
      <path d="M839.34,475.88c-2.83,0-5.43-1.77-7.55-4.95-3.77-6.02-6.13-14.98-6.13-25.13,0-8.85,1.3-18.4,4.48-32.09,2.12-9.56,3.3-16.99,3.3-19.94s-.12-4.48-.71-6.96c-.24-.83-.24-.94-.24-1.18s.24-.47.47-.47c.35,0,.71.12,1.18.47,8.26,6.49,11.21,11.56,11.21,17.22,0,2.36-1.77,7.43-4.25,14.86-3.54,10.26-6.13,17.69-6.13,25.83,0,6.37.47,6.96,1.89,6.96.94,0,1.42-.59,2.36-2.24,1.89-3.42,5.9-12.27,8.26-17.81.24-.59.35-.83.71-.83s.47.35.47,1.18c-1.06,5.19-2.95,14.75-3.77,20.53-.24,1.53-.59,4.6-.59,6.13,0,3.66.12,4.95.59,8.14.24,1.42.35,2.12.47,3.42,0,4.01-2.12,6.84-6.02,6.84ZM896.68,405.45c2.95-.59,4.01-.83,5.54-1.65,6.96.12,10.62,3.42,10.62,5.9s-1.53,3.42-5.19,4.13c-3.89.71-6.96,1.3-10.85,2.12.12,10.5.35,20.29.59,29.02.12,2.48.12,5.43.12,7.43,4.72,1.89,8.49,3.77,11.56,5.66,4.01,2.95,5.9,5.9,5.9,9.32s-2.12,5.31-4.84,5.31h-1.77c-1.65,0-2.83-.35-5.07-2.6-2.48-2.48-5.07-4.72-8.26-6.72-4.01,6.25-10.15,8.97-19.58,8.97s-16.75-5.31-16.75-12.5c0-6.49,7.9-11.44,15.93-11.44,2.71,0,6.61.24,11.44,1.06.24-2.12.35-4.95.35-9.79s0-12.5-.24-21.23c-3.66.94-6.84,1.77-9.32,2.48-4.48,1.42-5.78,1.65-7.2,1.65-1.18,0-1.65-.12-6.72-1.65-1.65-.47-2.83-.59-4.01-.59-.83,0-1.06,0-1.77.12q-.71.12-1.06.12c-.24,0-.35-.12,0-.47,2.36-2.24,5.54-4.25,9.2-5.9,2.6-1.18,5.9-2.12,11.32-3.54,3.19-.83,6.13-1.65,9.2-2.48-.12-4.01-.35-8.26-.59-12.39-.12-2.71-.47-3.89-2.12-4.6-1.42-.59-3.77-1.06-6.02-1.06-.24,0-.47-.12-.47-.59,0-.35.12-.59.71-.94,4.01-2.6,6.72-3.3,8.61-3.3,2.12,0,5.07.94,8.02,2.48,3.3,1.65,3.89,2.71,3.89,4.25,0,1.06-.47,2.36-.59,2.71-.35,1.3-.59,4.01-.59,8.02v2.71ZM869.9,453.82c-4.36,0-8.49,1.77-8.49,5.31,0,3.89,3.89,5.78,9.56,5.78,8.26,0,11.44-3.3,12.74-7.79-5.43-2.24-9.2-3.3-13.8-3.3Z" fill="#fff"/>
      <path d="M1026.08,410.17c7.79-9.56,8.14-10.03,9.32-10.03,1.3,0,1.65.12,7.43,5.31,4.6,4.13,4.95,4.6,4.95,5.54,0,.83-.47,1.53-1.42,1.53h-10.62c-.12,1.3-.94,2.24-2.71,3.42v16.87c0,15.57.59,31.5.59,35.51,0,4.95-2.6,9.08-7.43,11.8-2.95,1.65-5.66,2.83-10.03,2.83-1.77,0-2.83-.71-3.66-3.19-1.42-4.13-4.6-8.38-12.74-10.5-.71-.24-.71-1.3,0-1.3,6.37.12,11.09-.24,13.92-.59,3.42-.47,5.19-2.48,5.19-6.84v-42.94c0-1.89-.12-3.42-.24-5.07h-29.49c-4.25,0-8.49.24-12.98.83l-.94-3.42c-.83.24-1.89.59-3.18.83-1.89,3.54-4.48,7.67-7.55,11.91,7.31,2.6,7.9,3.54,7.9,4.48,0,1.18-.35,1.65-3.42,3.3v15.45c0,24.42.24,29.96.24,32.21,0,3.19-2.6,5.43-8.97,5.43-4.13,0-4.84-.71-4.84-3.89,0-2.36.47-12.5.71-26.31l.35-20.64c-6.02,7.08-12.74,13.57-18.64,17.58-.59.35-1.3-.47-.83-.94,5.54-6.13,12.74-20.05,19.23-37.98,2.24-6.37,2.95-8.85,3.77-13.33,3.89,1.65,6.96,2.83,9.44,3.89-.83-.47-1.06-1.3-1.06-2.24,0-1.42.24-4.6.24-8.14h-10.62c-6.02,0-11.21.12-18.05.83l-1.06-4.01c7.43.71,12.86.83,19.11.83h10.74v-2.12c0-4.95,0-7.9-.59-11.91,16.99.94,18.99,1.89,18.99,3.89,0,1.53-1.42,2.71-4.48,3.77v6.37h18.99v-.94c0-6.25,0-9.08-.47-13.09,18.05.83,19.58,1.89,19.58,3.89,0,1.06-1.42,2.71-4.48,3.77v2.95c0,1.18,0,2.36.12,3.42h9.67c7.9-9.56,8.26-9.79,9.44-9.79,1.3,0,1.77.24,7.55,5.43,4.36,3.89,4.72,4.36,4.72,5.43,0,.83-.35,1.3-1.3,1.3h-29.96c.12,2.83.35,4.95.35,6.49,0,3.77-3.66,5.31-10.15,5.31-3.77,0-5.07-.94-5.07-3.77v-8.02h-18.88c0,2.36.12,4.48.12,5.9,0,3.77-3.3,5.31-9.2,5.31-1.3,0-2.36-.12-3.07-.35,6.72,3.07,6.96,3.77,6.96,5.07,0,.71-.35,1.42-1.42,2.01,4.84.47,8.96.71,12.98.71h36.92ZM1010.87,436.12c0,13.21.35,16.52.35,17.46,0,2.83-2.95,4.25-8.49,4.25-3.54,0-4.25-.83-4.25-3.3v-2.95h-9.91v6.37c0,2.71-2.83,4.01-8.26,4.01-3.54,0-4.01-.83-4.01-3.3,0-1.42.35-5.54.35-18.76,0-11.56,0-14.27-.47-18.52,7.43,1.77,12.62,3.42,14.39,4.95h6.96c4.72-5.07,5.19-5.43,6.13-5.43s1.3.12,6.49,4.01c2.95,2.24,3.19,2.6,3.19,3.54s-.24,1.18-2.48,3.19v4.48ZM998.48,449.22v-20.53h-7.79c-.35.35-.94.71-2.12,1.18v19.35h9.91Z" fill="#fff"/>
      <path d="M1148.53,403.92c5.9-7.31,6.25-7.43,7.31-7.43s1.53.12,7.2,4.72c5.19,4.25,5.66,4.72,5.66,5.9s-.24,1.65-4.13,4.25c-.71,33.38-1.53,43.65-4.48,55.92-2.36,9.79-10.03,17.34-20.88,17.34-3.19,0-4.13-.71-4.48-2.6-.94-5.31-4.48-8.49-12.39-11.32-.71-.24-.71-1.18,0-1.18,2.71.24,6.13.35,7.9.35,9.91,0,14.39-2.01,16.04-9.67,2.36-10.03,3.66-24.06,4.48-48.96-7.08,32.68-25.72,59.34-56.03,67.59-.71.24-1.18-.94-.59-1.3,21.71-10.26,37.51-38.69,43.41-71.25h-3.54c-8.02,28.78-21.71,44.71-39.87,53.67-.59.35-1.3-.71-.71-1.18,10.5-7.79,21.35-27.84,26.31-52.49h-1.89c-6.49,8.97-14.04,16.87-20.88,21-.59.35-1.42-.47-.94-1.06,3.54-4.48,6.84-10.73,9.67-17.93h-13.57v22.18c5.54-1.65,11.56-3.42,18.4-5.66.71-.24,1.06.83.47,1.18-5.78,3.89-12.15,8.02-18.76,12.15.12,27.01.47,38.81.47,41.29,0,3.42-3.07,4.95-8.85,4.95-4.72,0-5.54-.47-5.54-4.25,0-2.36.47-12.74.71-34.21l-9.91,5.66c-.59,3.77-1.3,4.84-2.59,4.84s-2.01-.35-9.67-17.1c2.71-.47,4.95-.94,7.79-1.65,4.96-1.18,9.67-2.36,14.51-3.66.12-5.78.12-12.15.12-19.23v-6.49h-6.72c-3.3,8.49-8.26,18.17-12.74,22.89-.47.47-1.42.12-1.18-.59,2.12-5.9,3.54-18.28,4.25-34.09.12-3.54.12-5.9,0-8.97,11.8,2.83,15.34,3.77,16.4,4.84,0-10.62-.12-14.04-.47-18.28,16.87,1.42,18.05,2.71,18.05,4.13,0,1.3-.35,2.12-4.72,4.25v23.48h.71c5.19-8.85,5.54-8.97,6.49-8.97,1.06,0,1.3.24,4.96,4.95,1.3,1.65,2.12,2.71,2.59,3.42,2.6-7.31,4.84-15.45,6.61-23.95.47-2.12.83-4.25,1.3-7.67,19.23,4.95,20.29,6.02,20.29,7.79,0,1.53-.94,2.6-5.31,3.77-2.6,6.13-6.13,12.5-10.26,18.64h29.02ZM1079.28,405.93v-11.32c-.47.71-1.42,1.3-3.3,2.12-.47,2.48-1.3,5.66-2.6,9.2h5.9Z" fill="#fff"/>
      <path d="M1220.96,400.03c0-7.31-.47-9.44-1.18-10.73-.59-1.18-1.42-2.01-5.43-2.95-.59-.12-.83-.47-.83-.71s0-.47.35-.71c4.37-2.95,8.02-3.77,9.2-3.77,1.89,0,3.89.47,8.14,4.01,3.54,2.95,4.01,4.6,4.01,6.02,0,1.18-.47,2.24-.83,2.83-.83,1.3-1.3,3.42-1.53,6.25-.35,7.9-.35,11.56-.35,15.45,0,4.36,1.18,5.66,3.3,5.66.24,0,.59,0,1.06-.12,3.42-1.89,6.02-3.3,9.2-5.07,1.18-.71,2.24-1.77,2.24-2.95,0-1.06-.71-2.6-2.48-4.25q-.59-.47-.59-.71c0-.24.24-.35.59-.47.71-.24,1.53-.35,2.6-.35,2.71,0,5.78.94,10.26,4.95,4.6,4.01,5.43,6.61,5.43,8.61,0,2.24-.94,3.42-4.01,4.01-2.01.35-5.43,1.3-9.32,2.48-14.75,4.48-26.66,10.38-33.27,14.98-5.66,4.01-8.02,7.2-8.02,11.56,0,5.43,5.31,8.73,18.4,8.73,5.43,0,9.32-.24,14.75-.83,4.36-.47,7.08-1.3,11.56-2.48,7.79,0,14.63,4.36,14.63,8.26,0,4.48-2.36,6.02-8.26,6.72-5.66.71-12.74.94-22.65.94-22.41,0-33.74-7.43-33.74-20.17,0-5.9,2.71-10.97,6.37-14.98s10.03-9.32,18.52-14.39c-5.66-1.3-8.14-4.48-8.14-16.63v-9.2Z" fill="#fff"/>
      <path d="M1313.92,417.84c-5.54,6.96-11.21,12.86-15.45,16.04-.59.47-1.53-.35-1.06-.94,6.13-7.55,15.81-29.49,21.94-50.84.83-2.71,1.42-5.54,1.89-8.49,16.16,6.13,17.93,7.08,17.93,8.97,0,1.53-.71,2.24-5.19,3.54-2.6,6.13-6.61,12.98-11.21,19.7,7.2,2.83,8.49,3.77,8.49,5.19,0,1.06-.71,1.89-3.66,3.07v26.42c0,28.43.24,35.74.24,38.69,0,3.3-3.42,5.07-9.79,5.07-4.48,0-5.19-.94-5.19-4.01s.47-11.09.71-27.49l.35-34.92ZM1390.95,398.61c7.08-8.85,7.55-9.08,8.49-9.08s1.42.12,7.2,5.66c3.42,3.3,3.54,3.89,3.54,4.6,0,.59-.47,1.18-1.3,1.18h-63.94c-3.07,0-6.96.12-12.62.83l-1.06-4.01c5.9.71,10.03.83,13.68.83h46.01ZM1380.33,445.56c6.02-7.08,6.61-7.31,7.67-7.31s1.65.24,6.84,4.36c5.07,4.01,5.43,4.6,5.43,5.78,0,.94-.12,1.3-3.19,4.01v3.3c0,5.9.59,16.52.59,18.76,0,3.54-3.77,5.54-9.91,5.54-4.84,0-5.9-.59-5.9-4.48v-3.54h-28.31v5.9c0,3.66-2.24,5.66-9.55,5.66-4.25,0-5.07-.59-5.07-4.6,0-1.89.59-12.27.59-22.3,0-8.14,0-10.97-.47-16.75,11.33,2.71,14.98,4.13,16.04,5.66h25.25ZM1351.9,416.31c-2.83,0-5.54.12-11.21.83l-1.06-4.01c5.9.71,8.85.83,12.27.83h28.19c6.72-8.49,7.31-8.85,8.14-8.85.94,0,1.42.24,7.2,5.54,3.18,2.83,3.54,3.42,3.54,4.6,0,.59-.47,1.06-1.3,1.06h-45.77ZM1339.63,428.81c5.9.71,8.85.83,12.27.83h28.19c6.72-8.49,7.31-8.85,8.14-8.85.94,0,1.42.24,7.2,5.54,3.18,2.83,3.54,3.42,3.54,4.6,0,.59-.47,1.06-1.3,1.06h-45.77c-2.83,0-5.54.12-11.21.83l-1.06-4.01ZM1354.02,385.87c-3.07,0-6.96.12-12.62.83l-1.06-4.01c5.9.71,10.03.83,13.68.83h23.24c7.08-8.85,7.55-9.08,8.49-9.08s1.42.12,7.2,5.66c3.42,3.3,3.54,3.89,3.54,4.6,0,.59-.47,1.18-1.3,1.18h-41.17ZM1381.86,469.63v-21.71h-26.9c-.24.35-.71.83-1.42,1.3v20.41h28.31Z" fill="#fff"/>
      <path d="M1457.01,439.07c12.98,1.18,18.88,7.9,18.88,14.16,0,4.84-3.19,7.67-6.96,7.67-3.3,0-5.31-2.24-5.66-6.25-.71-7.31-2.59-10.97-6.25-13.92.12,29.14.71,35.86.71,38.69,0,3.54-1.65,5.07-7.08,5.07s-6.25-.94-6.25-4.36c0-3.19.24-11.68.71-23.24l.12-3.66c-6.13,8.02-14.63,15.45-22.06,19.11-.59.35-1.42-.47-.83-.94,8.38-7.08,17.93-24.3,21-38.46h-4.01v3.89c0,3.66-2.12,5.66-7.55,5.66-2.83,0-3.54-.59-3.54-4.6,0-1.89.47-8.26.47-16.87s0-12.03-.47-17.93c9.79,2.71,12.27,4.01,12.86,5.19h4.13v-14.04h-6.72c-3.77,0-7.2.12-11.91.83l-1.06-4.01c5.31.59,9.67.83,12.98.83h6.72c0-9.91-.12-13.57-.71-18.4,15.45,1.18,17.22,2.24,17.22,4.13,0,1.42-1.06,2.24-4.72,3.89v10.38h5.07c6.13-8.02,6.37-8.14,7.31-8.14s1.3.12,5.31,4.13,4.36,4.36,4.36,5.31c0,.83-.47,1.06-1.18,1.06h-20.88v14.04h3.78c4.36-5.66,4.72-5.9,5.78-5.9s1.53.24,6.02,3.77c4.37,3.54,4.48,3.89,4.48,4.95,0,.83-.24,1.18-2.71,3.3v4.13c0,7.9.35,10.5.35,12.98,0,3.54-3.89,5.54-7.55,5.54-3.07,0-4.13-.59-4.25-4.13h-5.9v6.13ZM1439.31,430.58h5.9v-19.94h-4.37c-.35.35-.83.83-1.53,1.3v18.64ZM1457.01,410.64v19.94h5.9v-19.94h-5.9ZM1512.33,383.16c7.9-8.85,8.26-9.2,9.32-9.2,1.3,0,1.89.12,7.31,5.19,4.37,4.01,4.6,4.36,4.6,5.31,0,.71-.47,1.06-1.3,1.06h-20.64c0,1.18-.83,2.01-3.18,2.71-3.54,4.84-7.67,10.03-11.33,14.27h13.57c5.66-6.61,6.13-7.08,7.31-7.08,1.3,0,2.01.12,7.31,4.72,4.01,3.42,4.48,4.13,4.48,5.19s-.35,1.53-3.66,4.01v10.85c0,17.34.71,29.85.71,33.62,0,3.3-3.19,4.84-8.97,4.84-4.01,0-5.54-.59-5.78-3.19h-20.05c-.12,1.18-.47,2.01-1.18,2.71,10.85,4.84,12.86,6.37,12.86,7.9,0,1.65-1.18,2.36-5.78,2.83-9.32,6.96-23,12.74-37.99,15.57-.71.12-1.18-.94-.47-1.18,8.97-3.77,19.94-13.33,25.83-21.94l.94-1.53c-.71.12-1.53.12-2.36.12-4.25,0-5.66-1.3-5.66-4.25,0-2.48.71-18.17.71-35.27,0-12.39,0-15.1-.59-23,6.72,1.65,10.85,3.07,13.21,4.01.59-4.84,1.3-10.26,1.77-15.93h-4.01c-3.19,0-8.38.24-13.92.83l-1.18-4.01c6.02.71,11.44.83,15.1.83h23ZM1512.1,418.55v-13.68h-18.4c-.35.35-.83.71-1.65,1.18v12.5h20.05ZM1512.1,435.06v-14.16h-20.05v14.16h20.05ZM1492.04,437.42v15.69h20.05v-15.69h-20.05ZM1532.86,475.05c0,4.48-3.07,8.26-7.55,8.26-3.54,0-5.9-1.18-7.79-6.13-2.83-7.31-7.79-14.63-15.1-18.17-.59-.35-.12-1.18.59-1.18,20.88.35,29.85,8.38,29.85,17.22Z" fill="#fff"/>
    </g>
  </g>
  <g id="_2行目" data-name="2行目">
    <g>
      <path d="M561.48,599.41c0,13.05.59,25.03.59,27.64,0,3.32-1.9,5.57-9.37,5.57-3.79,0-4.74-1.19-4.74-4.51,0-2.61.47-14.94.59-28.94-.47.24-1.19.47-2.02.71-3.56,10.67-11.98,22.3-18.27,27.87-.47.47-1.42-.12-1.07-.71,3.08-5.46,5.93-16.6,7.47-28.82.36-3.2.47-5.34.47-7.47,7.95,2.37,11.62,3.8,13.4,4.86v-12.33c-4.27,1.19-8.42,2.37-12.22,3.32-1.19,2.73-1.66,3.32-2.49,3.32-1.66,0-2.25-.95-7-16.72,2.85.24,6.17.47,9.01.59,3.44.12,6.88.24,10.44.36,4.86-8.42,8.18-15.89,12.69-26.33,1.3-3.08,2.25-5.57,2.85-7.71,14.11,6.76,15.18,7.59,15.18,9.25,0,1.54-1.19,2.02-4.86,2.85-7.12,8.07-12.93,14-20.64,21.94,5.1.12,10.44.12,15.89.12-.59-4.74-1.78-7.95-3.91-9.73-.59-.47,0-1.19.71-1.07,11.39,2.37,16.37,8.66,16.37,15.06,0,4.98-3.08,7.95-7.12,7.95-3.32,0-5.57-2.13-5.69-6.64l-.12-2.25-4.39,1.42c.12.24.12.36.12.59,0,.83-.47,1.42-1.9,2.49v17.32ZM531.48,543.43c4.15.47,7.59,1.42,10.44,2.61,2.13-6.4,3.8-11.98,5.22-18.74.59-2.85.83-4.51.95-6.29,16.72,4.74,18.5,5.93,18.5,7.71,0,1.9-.83,2.49-5.22,3.68-5.22,5.46-9.96,10.44-15.54,15.77,3.91,2.73,5.81,6.29,5.81,9.84,0,4.15-3.32,7.95-7.47,7.95s-6.05-2.73-6.52-6.76c-.71-6.64-2.96-11.74-6.76-14.59-.59-.47-.12-1.3.59-1.19ZM579.99,606.29c0,5.69-3.68,8.54-7.35,8.54-3.2,0-5.57-2.13-5.69-6.64-.24-7.71-1.19-14.35-4.39-17.08-.59-.47,0-1.07.71-.95,10.67,2.61,16.72,9.01,16.72,16.13ZM620.31,547.34c7.47-9.96,7.83-10.2,8.9-10.2s1.54.12,6.64,5.57c4.03,4.27,4.63,4.86,4.63,5.93,0,.59-.36,1.07-1.19,1.07h-27.64v22.18h6.76c7.35-9.96,7.83-10.2,8.9-10.2s1.54.12,6.64,5.58c4.03,4.27,4.63,4.86,4.63,5.93,0,.59-.36,1.07-1.19,1.07h-44.12c-3.56,0-7.71.12-12.1.83l-1.19-4.03c5.1.59,9.37.83,13.28.83h4.03v-22.18h-6.52c-3.56,0-7.71.12-12.1.83l-1.19-4.03c5.1.59,9.37.83,13.28.83h6.52v-9.61c0-6.88,0-10.56-.47-16.01,17.32,1.19,18.74,2.49,18.74,4.15,0,1.19-.95,2.13-3.91,3.44v18.03h8.66ZM615.69,589.56c5.46-6.52,6.29-7,7.47-7s1.78.12,7.47,4.86c4.15,3.56,4.74,4.27,4.74,5.34,0,1.3-.36,1.66-3.56,4.51v11.5c0,7.59.47,14.94.47,17.08,0,3.44-2.02,5.34-10.32,5.34-3.91,0-4.74-1.19-4.74-4.15v-2.73h-21.82v2.37c0,4.27-2.61,5.81-9.01,5.81-4.03,0-4.86-.59-4.86-4.27,0-2.73.71-11.27.71-24.43,0-10.08-.12-14.47-.36-19.57,11.98,2.73,15.3,3.8,15.77,5.34h18.03ZM617.23,621.94v-30.01h-20.4c-.36.36-.83.59-1.42.95v29.06h21.82Z" fill="#fff"/>
      <path d="M675.23,612.69c-2.85,2.85-4.51,4.74-5.81,6.88-1.3,2.02-2.61,2.97-5.22,2.97-1.78,0-4.15-.95-7.12-3.44-4.03-3.2-5.93-6.52-5.93-9.73,0-1.54.59-3.2,2.97-6.76.36-.47.59-.71.95-.71.24,0,.59.36.71.95.71,3.08,3.44,4.63,5.1,4.63,1.19,0,2.85-.83,5.34-2.25,13.05-7.95,20.16-12.1,30.01-17.2-3.2-3.44-5.46-5.93-7.59-8.9-1.9-2.73-2.73-5.93-2.73-8.78,0-4.86,2.73-7.95,12.22-19.21.47-.47,1.07-1.3,1.07-1.9,0-.95-.71-1.3-1.19-1.54-7.59-4.63-10.56-9.96-10.56-14.59,0-1.07.12-2.13.24-3.56.12-.47.36-.59.59-.59.36,0,.47.12.71.47.95,2.25,4.39,4.74,10.32,6.64,9.01,2.96,13.4,5.34,15.89,7.95,2.61,2.73,3.56,4.27,3.56,7.47,0,3.56-2.97,5.57-7.12,5.57-.36,0-.83,0-1.9-.12-.95-.12-1.3-.12-1.78-.12-1.78,0-3.68.36-5.81.95-1.66.47-5.1,2.37-8.18,4.27-2.73,1.66-4.03,3.56-4.03,5.69,0,2.61,1.9,4.74,5.57,7.83,4.03,3.32,7.59,6.17,10.32,8.3,4.74-1.3,9.84-2.02,14.94-2.02,10.91,0,20.16,2.25,26.81,8.18,5.69,5.1,6.4,9.84,6.4,13.52s-2.85,6.76-6.4,6.64c-3.2,0-4.74-.24-6.05-.83-.83-.36-2.37-.71-4.39-.95-3.2-.24-7.35-.24-9.96-.24-.47,0-.83-.12-.83-.47,0-.24.12-.36.59-.59,3.91-1.66,7.35-3.44,9.84-5.34,1.19-.83,1.54-1.66,1.54-3.68,0-2.61-2.85-6.05-5.81-7.95-4.39-3.2-9.13-4.51-15.42-4.51-2.49,0-4.86.36-7.59,1.3,7.95,7.12,10.32,11.39,10.32,17.32,0,9.49-9.61,16.25-19.1,16.25-2.13,0-4.03-.71-5.93-2.25-1.19-.95-2.97-2.37-5.81-3.79-2.97-1.42-6.64-3.44-10.56-4.98-1.07,1.07-2.13,2.13-3.2,3.2ZM699.78,591.7c-7.35,4.27-13.64,10.2-19.69,16.01,6.29,1.19,11.5,1.42,15.3,1.42,4.15,0,6.76-.71,8.3-2.25,1.3-1.3,2.13-2.61,2.13-4.98,0-2.73-1.19-4.98-5.22-9.25l-.83-.95ZM739.64,546.98c3.2,1.78,6.05,4.27,6.05,8.18,0,3.32-2.25,5.34-4.86,5.34-1.78,0-3.56-.71-4.63-3.32-1.9-4.63-5.46-9.25-9.61-11.98-.59-.36-.95-.59-.95-.95s.24-.47,1.19-.47c2.61,0,8.78.71,12.81,3.2ZM739.4,533.82c3.32,0,7.71.36,11.15,2.02s6.52,3.8,6.52,7.95c0,2.85-2.02,5.1-4.63,5.1s-3.68-.71-5.1-3.68c-1.66-3.32-5.57-7.59-9.61-9.84-.71-.47-.95-.59-.95-1.07,0-.36.36-.47,1.19-.47h1.42Z" fill="#fff"/>
      <path d="M798.7,605.81c2.85,3.91,6.17,6.29,9.49,7.47,4.03,1.42,11.39,1.78,23.37,1.78,16.01,0,34.87-1.19,49.34-2.96.71-.12.95.83.36,1.3-4.39,3.32-6.52,7.23-7,10.91-.36,2.73-1.19,4.03-3.68,4.15-3.08.36-8.42.59-26.09.59-27.04,0-32.85-1.54-38.9-6.52-3.8-3.08-6.52-7-8.54-14-5.1,6.17-11.15,12.22-16.6,16.84-1.3,3.2-2.13,4.15-3.44,4.15-1.42,0-3.2-1.9-9.84-16.25,3.44-.83,5.46-1.54,7.12-2.13,3.56-1.3,6.52-2.61,10.32-4.51v-33.45h-5.1c-4.27,0-6.05.12-10.56.83l-1.07-4.03c5.34.71,7.35.83,11.62.83h3.68c5.81-7,6.4-7.71,7.59-7.71,1.3,0,1.9.24,5.93,3.79,5.34,4.63,5.81,5.22,5.81,6.76,0,.95-.59,1.54-3.8,4.15v27.99ZM776.88,524.33c14.94,1.66,21.94,8.66,21.94,16.25,0,5.22-2.85,8.9-9.01,8.9-4.74,0-6.64-3.08-7-8.9-.36-4.74-1.66-11.15-6.88-15.06-.59-.47.24-1.3.95-1.19ZM813.89,544.02c-3.8,0-7.23.12-11.98.83l-1.07-4.03c5.34.59,9.73.83,13.05.83h25.38c1.19-5.1,2.25-10.44,2.97-17.08.12-1.3.24-2.49.36-4.27,15.66,3.56,18.38,4.98,18.38,6.64,0,1.07-1.07,1.9-4.63,2.61-4.03,5.1-7.12,8.66-10.32,12.1h11.62c6.76-8.42,7.35-9.01,8.54-9.01s1.66.12,7.59,5.1c4.51,3.8,4.63,4.39,4.63,5.1s-.47,1.19-1.3,1.19h-32.5c.12.24.12.36.12.59,0,.47-.95,1.3-3.32,2.13-3.44,3.8-6.29,6.76-8.78,9.13h16.49c5.34-6.17,5.93-6.52,6.88-6.52,1.07,0,1.9,0,7.35,4.39,4.51,3.56,4.74,3.91,4.74,4.98,0,.95-.24,1.42-3.44,3.91v11.62c0,14.23.59,28.11.59,30.96,0,3.44-3.56,5.57-9.73,5.57-4.39,0-5.1-.47-5.1-4.27v-1.42h-26.57v.36c0,4.27-2.61,5.81-9.84,5.81-3.44,0-4.03-.71-4.03-3.56s.59-16.96.59-32.74c0-14.35,0-16.49-.36-24.43,11.15,2.73,14.71,4.15,15.66,5.34h.83c.71-4.03,1.19-7.71,1.54-11.86h-14.35ZM812.82,521.13c14.94,1.07,20.4,6.29,20.4,12.1,0,4.86-3.32,7.95-7.59,7.95s-6.05-2.25-6.64-5.93c-.95-6.17-3.08-10.56-6.88-12.93-.59-.36,0-1.19.71-1.19ZM850.42,570.23v-11.98h-24.55c-.36.59-1.07.95-2.02,1.42v10.56h26.57ZM823.85,572.6v13.64h26.57v-13.64h-26.57ZM850.42,602.73v-14.11h-26.57v14.11h26.57Z" fill="#fff"/>
      <path d="M917.37,629.66c-3.43,0-5.51-1.78-6.34-5.89-1.56-7.95-4.99-12.72-10.81-15.81-.31-.19-.42-.37-.42-.66,0-.47.31-.65.73-.65,16.11,1.03,24.95,7.02,24.95,15.62,0,4.49-3.43,7.39-8.11,7.39Z" fill="#fff"/>
      <path d="M1038.38,542.12c8.54-9.96,8.9-10.32,10.08-10.32s1.78.24,8.07,6.17c4.03,3.8,4.27,4.27,4.27,5.34,0,.71-.36,1.19-1.3,1.19h-80.77c-.47.47-1.3.95-2.25,1.42v20.64c0,23.25-2.85,33.92-8.3,44.6-4.39,8.54-10.79,15.77-18.27,21.35-.59.47-1.42-.36-.95-.95,4.51-5.22,7.47-12.33,9.61-20.88,2.02-8.3,3.44-19.33,3.44-40.44,0-16.25-.36-24.2-1.19-33.68,14.47,3.32,17.79,4.27,18.5,5.57h22.06v-6.52c0-6.05,0-7.59-.71-13.4,18.98,1.19,21.23,2.49,21.23,4.27,0,1.42-.59,2.02-4.86,3.91v11.74h21.35ZM1055.1,617.56c0,6.88-4.51,10.67-9.25,10.67s-7.35-2.49-8.54-7.95c-.71-3.08-1.3-5.81-2.02-8.42-18.86,5.57-32.26,9.37-52.78,14.94-.95,2.02-1.66,3.08-2.97,3.08s-2.02-.71-2.85-3.2c-1.3-4.03-2.73-9.25-4.75-16.72,4.27.24,6.64.36,10.67.36,2.73,0,6.05,0,9.73-.12,3.44-13.17,7.12-30.6,9.84-48.87.47-3.2.95-7.12,1.19-10.79,21.82,5.34,23.37,6.52,23.37,8.42,0,2.02-1.19,2.73-5.57,3.68-7.35,17.91-15.54,35.23-22.06,47.21,11.15-.47,24.08-1.3,34.87-2.13-2.85-8.07-6.52-13.28-12.57-18.86-.47-.47,0-1.42.71-1.19,23.72,6.52,32.97,19.33,32.97,29.89Z" fill="#fff"/>
      <path d="M1117.73,556.83c14.71,0,17.55,11.15,17.55,21.71,0,14.35-4.51,26.69-8.9,34.16-2.02,3.56-4.03,5.93-7,8.42-2.37,1.78-5.22,3.08-8.54,3.2-3.44,0-5.93-1.78-6.88-6.29-.47-2.73-3.08-6.64-7-12.57-.24-.36-.24-.47-.24-.71s.24-.47.59-.47.47,0,1.19.47c2.02,1.3,4.39,2.73,6.52,3.68,2.25.95,3.68,1.19,5.22,1.19,2.13,0,3.8-1.3,7-6.17,3.91-6.64,8.54-21.35,8.54-33.45,0-6.64-1.42-8.66-4.75-8.66-1.78.12-3.56.47-6.76,1.9-7.83,16.49-14.71,30.96-19.45,40.33-6.4,12.93-10.2,14.35-12.69,14.35-3.32,0-5.1-2.73-5.1-8.3,0-3.32.59-5.1,3.56-8.66,7.12-8.3,15.18-19.81,21.94-33.33-3.91,2.02-7.95,4.27-12.93,7.12-1.19,1.19-2.37,1.78-4.03,1.78-1.78,0-4.15-1.54-7.12-4.98-2.02-2.37-3.2-4.74-3.2-6.17,0-.95,0-1.3.12-2.61.12-.95.24-1.07.47-1.07s.36.12.59.36c2.13,2.02,4.03,2.25,6.17,2.25,2.02,0,5.69-.59,8.9-1.54,6.05-1.66,11.03-2.96,14.94-3.91,1.9-4.86,3.08-8.66,3.79-11.86.71-3.08,1.19-6.05,1.19-8.06,0-1.42-1.66-3.56-5.46-4.51-.36-.12-.47-.36-.47-.59s.12-.47.47-.71c2.96-1.54,5.34-2.25,6.76-2.25,1.9,0,4.62,1.07,8.18,3.56,3.2,2.25,4.39,3.56,4.39,5.46,0,1.42-.59,2.13-1.54,3.44-.59.83-1.3,2.37-2.13,4.03-1.54,3.2-2.97,6.4-4.39,9.49h.47ZM1142.52,557.3c0-.47.24-.71,1.07-.71,1.19,0,2.02.12,4.62.59,7,1.54,12.45,4.27,18.5,9.96,5.57,5.1,8.78,11.62,8.78,17.55,0,5.34-2.73,9.01-7,9.01-2.02,0-3.91-.24-5.58-1.19-1.3-.71-2.85-1.07-5.22-1.54-2.61-.47-6.52-.83-11.62-.95-.47,0-.71-.24-.71-.59,0-.24.12-.47.47-.59,5.34-1.66,8.9-3.32,11.62-5.1,2.13-1.42,2.49-2.25,2.49-4.98,0-5.34-6.64-16.72-16.72-20.64-.47-.24-.71-.47-.71-.83ZM1160.07,539.39c4.27,2.49,5.93,5.1,5.93,8.3s-2.02,5.57-5.22,5.57c-1.78,0-3.56-1.07-4.62-3.8-1.54-3.91-4.86-9.01-8.9-11.98-.59-.47-.95-.59-.95-.95s.36-.47,1.3-.47c2.61,0,8.42.71,12.45,3.32ZM1160.19,526.47c3.2,0,7.47.47,10.91,2.14,4.86,2.37,6.64,4.39,6.64,8.06,0,3.2-2.25,5.22-4.86,5.22-2.37,0-3.68-1.19-5.1-4.03-1.66-3.32-5.1-7.59-9.13-9.84-.71-.47-.95-.59-.95-1.07,0-.36.47-.47,1.3-.47h1.19Z" fill="#fff"/>
      <path d="M1216.89,579.6c7.83-4.98,13.88-6.52,20.4-6.52,15.42,0,29.3,8.3,29.3,23.84s-17.67,28.94-36.89,28.94c-12.81,0-20.52-5.69-20.52-13.17,0-5.93,5.81-11.03,13.76-11.03s14.83,4.03,18.5,11.27c6.64-4.39,10.91-9.73,10.91-19.93,0-8.78-7.23-14.47-17.55-14.47-3.68,0-9.61,1.54-14.83,5.1-4.39,2.85-9.73,7.83-15.66,16.49-2.85,4.27-4.39,5.46-7.24,5.46s-6.05-3.32-6.05-7.71c0-2.96.59-4.74,5.1-9.13,5.58-5.58,13.17-14.35,19.93-22.77,6.17-7.59,12.57-16.49,15.3-20.64.36-.59.59-1.07.59-1.3s-.12-.36-.36-.36-.47.12-.83.24c-6.05,2.49-12.45,6.05-17.32,9.01-1.19.95-2.49,1.31-4.03,1.31-1.66,0-3.32-1.31-5.81-4.63-2.25-2.97-2.85-4.27-2.85-6.64,0-1.3.24-2.85.59-4.74.12-.47.24-.71.59-.71s.59.24.83.59c1.9,2.49,4.51,3.56,7.24,3.56,3.44,0,10.32-2.13,23.37-7.83,2.25-1.78,3.79-2.61,5.1-2.61,1.9,0,3.68,1.07,5.46,2.85,4.03,3.8,5.93,6.29,5.93,8.07,0,1.42-.59,2.37-2.73,3.91-2.61,1.9-4.15,3.2-9.01,8.66-7.12,8.06-12.93,14.94-21.35,24.67l.12.24ZM1218.9,606.76c-3.91.12-5.81,1.54-5.81,4.75,0,3.68,5.22,6.4,10.08,6.4,3.56,0,5.57-.36,7.71-1.07-2.49-6.64-7.83-10.08-11.98-10.08Z" fill="#fff"/>
      <path d="M1384.24,591.11c7.47-9.96,7.83-10.44,8.78-10.44,1.42,0,2.02.24,6.64,4.62,4.98,4.75,5.46,5.46,5.46,6.52,0,1.19-.47,1.66-2.25,1.66h-26.69c.24,21.59.59,31.79.59,34.04,0,3.44-3.2,4.98-9.61,4.98-5.22,0-6.29-.47-6.29-4.27,0-2.49.47-13.4.83-34.75h-9.25c-2.73,0-7.83.24-13.4.83l-1.19-4.03c5.81.59,11.15.83,14.59.83h9.25c0-6.17.12-13.28.12-21.11h-5.22c-3.79,0-7.23.12-11.98.83l-1.07-4.03c5.34.59,9.73.83,13.05.83h5.22v-23.37c-.71.36-1.54.71-2.73,1.07-5.93,8.54-13.28,16.37-21.47,21.82,4.74,2.61,7,6.41,7,11.39s-2.85,7.59-7.12,7.59c-3.2,0-5.1-1.9-5.22-6.41l-.12-1.66-3.79,1.3v.24c0,.95-.36,1.54-2.02,2.61v8.66c.12-.24.24-.36.71-.24,12.45,2.61,18.86,9.96,18.86,17.91,0,5.22-3.32,8.66-7.83,8.66-3.32,0-5.93-2.37-5.93-6.52,0-9.61-2.37-16.01-5.81-18.98v7.83c0,13.05.47,25.03.47,27.63,0,3.32-2.02,5.58-9.49,5.58-3.79,0-4.74-1.19-4.74-4.51,0-2.61.47-14.94.59-29.06-.47.24-1.19.59-2.14.83-4.27,11.03-9.25,19.57-18.03,27.87-.47.47-1.3,0-1.07-.71,3.91-9.13,5.93-18.74,7.59-29.77.36-2.25.59-4.39.59-6.52,7.71,2.49,11.39,3.91,13.05,4.86v-12.1c-4.27,1.07-8.3,2.13-12.1,2.96-1.07,2.73-1.78,3.32-2.61,3.32-1.66.12-3.56-1.66-7.12-16.6,3.91.36,7.35.47,9.49.59,3.32.12,6.52.24,9.73.36,6.05-10.32,9.37-17.32,14.11-28.11.47-1.19,1.42-3.8,2.13-5.93,12.22,4.39,15.18,6.05,15.3,8.18,0,1.78-1.19,2.49-5.46,3.44-6.4,7.59-12.93,15.18-20.99,22.54h16.13c-.59-5.1-1.9-7.83-3.8-9.61-.47-.47-.12-1.07.59-.95,2.96.71,5.57,1.54,7.71,2.61,3.91-6.05,7.95-15.54,10.2-23.01.95-3.32,1.54-6.4,2.02-9.25,7.35,2.73,11.27,4.39,13.28,5.57-.12-11.15-.36-14.47-.71-18.62,17.91,1.66,19.33,2.85,19.33,4.51,0,1.3-1.19,2.13-4.39,3.91v38.07h2.61c6.64-9.01,7.35-9.49,8.3-9.49s2.02.47,6.52,4.62c3.91,3.68,4.86,4.51,4.86,5.81,0,1.07-.59,1.42-2.37,1.42h-19.93c0,7.95,0,14.94.12,21.11h8.07ZM1295.41,543.54c4.86.71,8.66,1.78,11.62,2.97,1.78-6.05,3.44-11.74,4.98-19.93.36-2.02.59-4.03.71-5.46,15.42,4.03,18.15,5.46,18.15,7.35,0,2.02-1.19,2.85-5.69,4.15-4.39,5.46-8.9,10.67-14.23,15.89,4.15,2.85,5.46,6.29,5.46,9.84,0,4.27-3.2,7.59-6.64,7.59-4.15,0-6.29-1.3-7-6.29-.83-5.58-2.85-11.62-7.95-14.94-.59-.36-.12-1.3.59-1.19ZM1377.13,537.5c18.74.12,26.69,8.06,26.69,15.3,0,4.86-2.73,7.95-6.88,8.06-3.32.12-5.46-2.02-6.64-5.57-3.2-9.25-8.78-14.23-13.76-16.72-.59-.36-.12-1.07.59-1.07Z" fill="#fff"/>
    </g>
  </g>
</svg>