<?xml version="1.0" encoding="UTF-8"?><svg id="truck" xmlns="http://www.w3.org/2000/svg" viewBox="0 0 2001.73 1427.99"><g id="truck4t"><path d="M1180.9,678.2v-34.56c0-5.76-.69-7.33-7.52-7.33h-341.25s-.45-87.22-.45-97.75c0-6.8-2.77-9.91-9.25-9.91h-68c-5.5,0-9.15,1.98-15.04,10.17-3.67,5.11-26.44,35.82-32.34,47.33-3.67,7.16-6.14,17.37-6.14,26.9v65.27c0,2.45.43,2.68,1.97,2.68h37.9c-.08-.9-.14-1.81-.14-2.73,0-16.83,14.2-30.47,31.71-30.47s31.71,13.64,31.71,30.47c0,.92-.06,1.83-.14,2.73h190.13c-.08-.9-.14-1.81-.14-2.73,0-16.83,14.2-30.47,31.71-30.47s31.71,13.64,31.71,30.47c0,.92-.06,1.83-.14,2.73h7.24c-.08-.9-.14-1.81-.14-2.73,0-16.83,14.2-30.47,31.71-30.47s31.71,13.64,31.71,30.47c0,.92-.06,1.83-.14,2.73h51.81c1.61,0,1.53-1.26,1.53-2.8Z" fill="#0e365c"/><g id="tire1"><path d="M798.21,680.38c0,14.34-11.62,25.96-25.96,25.96s-25.96-11.62-25.96-25.96,11.62-25.96,25.96-25.96,25.96,11.62,25.96,25.96Z" fill="#0e365c"/><path d="M785.92,680.38c0,7.55-6.12,13.66-13.66,13.66s-13.66-6.12-13.66-13.66,6.12-13.66,13.66-13.66,13.66,6.12,13.66,13.66Z" fill="#fff"/><polyline points="785.91 680.55 772.25 680.55 772.08 680.55 758.42 680.55" fill="none" stroke="#0e365c" stroke-miterlimit="10"/><polyline points="772.25 694.04 772.25 680.38 772.25 666.72" fill="none" stroke="#0e365c" stroke-miterlimit="10"/><polyline points="781.91 690.04 772.25 680.38 762.59 670.72" fill="none" stroke="#0e365c" stroke-miterlimit="10"/><polyline points="781.91 670.72 772.25 680.38 762.59 690.04" fill="none" stroke="#0e365c" stroke-miterlimit="10"/></g><g id="tire2"><path d="M1051.92,680.38c0,14.33-11.62,25.95-25.95,25.95s-25.96-11.62-25.96-25.95,11.62-25.96,25.96-25.96,25.95,11.62,25.95,25.96Z" fill="#0e365c"/><path d="M1039.62,680.38c0,7.54-6.12,13.66-13.66,13.66s-13.66-6.12-13.66-13.66,6.12-13.66,13.66-13.66,13.66,6.12,13.66,13.66Z" fill="#fff"/><polyline points="1039.62 680.55 1025.96 680.55 1025.79 680.55 1012.13 680.55" fill="none" stroke="#0e365c" stroke-miterlimit="10"/><polyline points="1025.96 694.04 1025.96 680.38 1025.96 666.72" fill="none" stroke="#0e365c" stroke-miterlimit="10"/><polyline points="1035.62 690.04 1025.96 680.38 1016.3 670.72" fill="none" stroke="#0e365c" stroke-miterlimit="10"/><polyline points="1035.62 670.72 1025.96 680.38 1016.3 690.04" fill="none" stroke="#0e365c" stroke-miterlimit="10"/></g><g id="tire3"><path d="M1121.83,680.38c0,14.33-11.62,25.95-25.95,25.95s-25.96-11.62-25.96-25.95,11.62-25.96,25.96-25.96,25.95,11.62,25.95,25.96Z" fill="#0e365c"/><path d="M1109.53,680.38c0,7.54-6.12,13.66-13.66,13.66s-13.66-6.12-13.66-13.66,6.12-13.66,13.66-13.66,13.66,6.12,13.66,13.66Z" fill="#fff"/><polyline points="1109.53 680.55 1095.87 680.55 1095.7 680.55 1082.04 680.55" fill="none" stroke="#0e365c" stroke-miterlimit="10"/><polyline points="1095.87 694.04 1095.87 680.38 1095.87 666.72" fill="none" stroke="#0e365c" stroke-miterlimit="10"/><polyline points="1105.53 690.04 1095.87 680.38 1086.21 670.72" fill="none" stroke="#0e365c" stroke-miterlimit="10"/><polyline points="1105.53 670.72 1095.87 680.38 1086.21 690.04" fill="none" stroke="#0e365c" stroke-miterlimit="10"/></g><path d="M1180.9,632.16h-342.26v-131.76c0-.88.52-1.81,1.64-1.81h338.95c1.12,0,1.67.75,1.67,1.7v131.87Z" fill="#0e365c"/><polygon points="716.21 585.88 726.79 585.88 750.59 536.39 747.95 536.39 716.21 585.88" fill="#fff"/><polygon points="732.61 585.88 795.95 585.88 795.95 536.39 754.82 536.39 732.61 585.88" fill="#fff"/><path d="M724.29,648.34c0,7.57-4.09,13.71-9.14,13.71s-9.14-6.14-9.14-13.71,4.09-13.71,9.14-13.71,9.14,6.14,9.14,13.71Z" fill="#fff"/></g></svg>