<svg xmlns="http://www.w3.org/2000/svg" viewBox="0 0 500 150">
  <style>
    .main-text { fill: #ffffff; }
    .accent-circle { fill: #4d9962; }
    .circle-bg { fill: rgba(255, 255, 255, 0.3); }
    .circle-inner { fill: #ffffff; }
  </style>
  <g>
    <!-- L字 -->
    <path class="main-text" d="M50,30 L50,110 L90,110 L90,95 L65,95 L65,30 Z"/>
    <!-- O字 (実際はGの一部) -->
    <path class="main-text" d="M140,50 C120,50 105,65 105,85 C105,105 120,120 140,120 C160,120 175,105 175,85 L160,85 C160,95 150,105 140,105 C130,105 120,95 120,85 C120,75 130,65 140,65 C150,65 160,75 160,85 L175,85 C175,65 160,50 140,50 Z"/>
    <!-- G字 -->
    <path class="main-text" d="M160,85 L140,85 L140,110 L155,110 L155,100 L160,85 Z"/>
    <!-- I字 -->
    <path class="main-text" d="M185,50 L185,110 L200,110 L200,50 Z"/>
    <!-- S字 -->
    <path class="main-text" d="M250,50 C230,50 215,60 215,75 C215,95 250,85 250,95 C250,100 240,105 230,105 C220,105 210,100 210,90 L195,90 C195,105 210,120 230,120 C250,120 265,110 265,95 C265,75 230,85 230,75 C230,70 240,65 250,65 C260,65 270,70 270,80 L285,80 C285,65 270,50 250,50 Z"/>
    <!-- T字 -->
    <path class="main-text" d="M290,50 L290,65 L305,65 L305,110 L320,110 L320,65 L335,65 L335,50 Z"/>
    <!-- E字 -->
    <path class="main-text" d="M345,50 L345,110 L385,110 L385,95 L360,95 L360,85 L380,85 L380,70 L360,70 L360,65 L385,65 L385,50 Z"/>
    <!-- M字 -->
    <path class="main-text" d="M395,50 L395,110 L410,110 L410,50 L420,50 L435,90 L450,50 L460,50 L460,110 L475,110 L475,50 L445,50 L435,80 L425,50 Z"/>
    
    <!-- サークルロゴ -->
    <circle class="circle-bg" cx="35" cy="70" r="25"/>
    <circle class="circle-inner" cx="35" cy="70" r="18"/>
    <path class="accent-circle" d="M35,52 A18,18 0 0,1 47,62 L35,70 Z"/>
    <path class="accent-circle" d="M35,88 A18,18 0 0,1 23,78 L35,70 Z"/>
  </g>
</svg>