<?xml version="1.0" encoding="UTF-8"?>
<svg id="_レイヤー_3" data-name="レイヤー 3" xmlns="http://www.w3.org/2000/svg" width="3562.38" height="3002.94" viewBox="0 0 3562.38 3002.94">
  <path d="M1682,1761.93c-.43,2.37.64,4.53.97,6.77-2.4.27-5.06,4.23-6,6.08-10.4,20.57-14.78,42.15-17.46,64.7-.44,3.7-4.55,5.64-.7,12.34-18.67,1.92-32.39-.11-50.26-.97-1.39-12.29,12.14-81.44,20.07-86.03,3.28-1.9,12.44-.64,16.66-.96-1.11,13.57-1.47,31.58,2.22,44.66.4,1.42,1.24,6.24,3.57,5.6,5.24-16.79,2.28-34.63-1.92-51.23,10.72-.69,22.08-.7,32.86-.97Z" fill="#035e87"/>
  <path d="M1995.17,1782.23l4.85,31.89c6.18-8.6,3.08-21.12,3.85-30.93,10.32.61,20.65,1.84,30.93,2.9-.36,19.99-3.66,38.65-15.46,55.09l20.29,3.38c-8.77,4.1-19.43,6.19-28.99,7.25-7.92-22.63-19.29-44.99-19.33-69.59,1.29.03,2.58-.05,3.87,0Z" fill="#2ad08f"/>
  <g>
    <path d="M2119.86,1667.21c5.25-1.01,12.32-3.4,14.5-3.87,11.49-2.46,25.93-2.81,36.93-7.05,34.77-13.39,63.96-172.96,98.11-56.95,4.39,14.9,7.59,31.28,10.45,46.58,40.02,213.94-107.3,154.39-245.05,140.18-10.28-1.06-20.61-2.29-30.93-2.9-2.96-.18-5.78-.86-8.7-.97-1.29-.05-2.58.03-3.87,0-5.73-.14-28.72-2.06-29.96,3.45l15.46,67.12c-13.77.24-30.38.62-43.96-.02-4.29-.2-29.06-2.81-30.98-4.79-2-2.07,1.04-2.09,2.24-2.61,5.04-2.19,13.03-2.71,18.57-3.22-11.3-13.26-16.76-29.88-19.2-47-.53-3.7.68-19.36-1.74-20.5-72.84-8.27-146.23-14.51-219.74-12.72-10.78.26-22.14.27-32.86.97-1.63.11-3.03.9-3.87.97-4.23.32-13.39-.93-16.66.96-7.92,4.59-21.45,73.74-20.07,86.03-6.67-.32-60.88-1.61-61.86-6.3-.82-3.94,19.91-4.57,20.3-5.79-15.83-19.04-20.26-44.92-19.34-69.1-82.66.62-165.15,55.41-236.83-11.1-8.9-8.26-34.94-38.2-34.34-49.84,1.2-23.3,40.54-30.61,48.16-52.35,11.38-32.49,7.37-106.99,9.39-144.78,11.71-.75,21.88-6.16,29.96-14.5,22.07,8.21,35.68,12.38,59.58,6.9,23.6-5.41,43.53-21.14,60.26-37.83-2.19,69.08-19.45,137.15-18.23,206.24,5.18,50.53,70.54,23.09,103.75,20.88,186.37-12.41,362.93,9.99,550.51-26.06Z" fill="#0e375f"/>
    <path d="M2271.77,1665.16c-4.69-6.45-26.46,12.67-30.29,16.81-2.99-1.03,1.82-4.87-1.04-7.91-5.65-5.99-23.09,11.2-27.87,14.45,4.66-15-11.76-6.02-15.94-1.31-4.79,5.4-10.96,33.78-18.11,41.32,15.75,4.59,34.43-44.71,42.93-40.96,4.89,2.16-13.89,30.38-12.73,31.65,2.39,2.61,16.5-6.74,18.51-9.13,7.16-8.51,10.85-28.16,25.6-29.26-.43,4.52-13.39,25.52-9.84,28.44,5.19,4.26,30.37-11.53,27.82-15.28-.56-.82-8.15,4.31-8.92,1.43-1.13-4.23,13.61-25.12,9.9-30.23Z" fill="#fff"/>
    <path d="M2180.14,1699.22c-.76-6.92-.04-8.66-8.61-8.35-11.51.41-34.92,19.32-40.59,29.12-25.35,43.79,48.19,5.69,42.85-1.71-.88-1.22-23.29,14.6-28.12,7.2-1.06-1.62-.59-3.64.33-5.17,1.84-3.08,32.4-12.11,35.29-18.42,1.11-2.43-1.11-2.27-1.15-2.66Z" fill="#fff"/>
    <path d="M2122,1694.09c-1.25-1.77-15.77,7.2-17.07,8.74-2.68,3.2-2.48,7.15-4.96,10.2-1.22,1.5-13.62,7.59-11.34,10.43.69.85,6.23-2.04,6.92-1.17,1.94,2.44-28.38,42.48,5.9,28.66,3-1.21,17.07-10.36,17.64-12.97,1.19-5.39-12.72,5.75-14.87,2.76-1.33-1.84,5.9-20.55,7.86-22.43,2.74-2.63,21.37-5.53,22.27-12.66.5-3.98-14.88,4.81-16.82,2.5-.48-.57,6.15-11.68,4.46-14.08Z" fill="#fff"/>
    <path d="M2058.32,1733.75c1.14-10.77,12.64-5.06,15.17-5.57,1.44-.29,11.17-8.17,8.08-10.87-6.61-5.78-46.38,20.05-41.15,29.43,3.25,5.83,17.41,1.41,15.59,6.52-2.93,8.26-15.71,2.52-18.23,3.44-2.1.76-11.68,9.06-9.52,11.66,5.63,6.81,52.61-19.35,46.3-31.17-.3-.57-1.85-1.86-2.29-1.91l-13.93-1.54Z" fill="#fff"/>
    <path d="M1489.65,1329.87c-2.56-1.64-8.55-3.36-11.6-4.83-11.51-5.55-23.06-8.85-34.8-13.53-.61-.24-1.25-.68-1.93-.97-.27-.11-.7.12-.97,0-1.1-.5-3.08-3.39-5.8-2.9-3.59-1.87-11.38-5.29-15.93-5.82-4.92-.57-27.78-.87-31.91.02-2.47.53-2.55,1.66-2.42,3.87-2.04.25-3.8.57-5.8.97.68-3.51-3.93-2.43-3.87.97-14.75,3.68-27.7,11.7-40.59,19.33-4.35-45.77-15.41-110.11-43.08-147.82-7.97-10.87-20.95-13.22.53-26.66,41.92-26.21,183.78-41.8,225.52-15.74,19.77,12.35-2.12,34-8.18,50.39-7.29,19.72-3.77,36.9-5.66,57.17-2.75,29.46-16.41,55.64-13.51,85.57Z" fill="#0e375f"/>
    <path d="M1991.31,1782.23c.04,24.61,11.41,46.97,19.33,69.59-11.57,1.28-22.3.77-33.83.97l-15.46-67.12c1.23-5.51,24.23-3.59,29.96-3.45Z" fill="#035e87"/>
    <path d="M1300.19,1369.5c1.21.83,6.65,26.83,6.75,28.6,1.12,20.5-6.91,27.56,3.07,51.96,2.11,5.16,12.1,17.61,12.33,18.71.41,1.97-2.87,4.08-.88,7.03-28.62-10.19-38.62-42.61-35.49-70.76.38-3.38,9.79-38.56,14.22-35.55Z" fill="#c8c8cc"/>
    <path d="M1682.97,1768.7c3.59,24.28.88,52.66-14.5,72.48l21.26,3.86c-10.07,3.46-20.29,5.69-30.92,6.78-3.84-6.7.26-8.64.7-12.34,2.69-22.56,7.06-44.14,17.46-64.7.94-1.85,3.6-5.81,6-6.08Z" fill="#2ad08f"/>
    <path d="M1348.78,1399.19c-8.98-7.4,7.86-34.94,17.1-31.15,11.25,4.61-7.28,39.24-17.1,31.15Z" fill="#146696"/>
    <path d="M1335.96,1468.09l50.26,7.73c-5.64,2.35-19.07,7.73-24.65,7.73h-25.61c-.77,0-.03-13.91,0-15.47Z" fill="#2ad08f"/>
    <path d="M1363.99,1497.09c-8.08,8.33-18.26,13.75-29.96,14.5.22-4.17.06-25.16.97-26.1,2.13-2.2,25.07,10.14,29,11.6Z" fill="#0e375f"/>
    <path d="M1374.63,1307.64c-.07-3.4,4.55-4.48,3.87-.97-1.2.24-2.64.66-3.87.97Z" fill="#035e87"/>
    <g>
      <path d="M1518.65,1377.23c2.29-7.2,26.87-35.72,33.34-42.54,82.25-86.7,279.77-172.93,398.9-147.57,16.16,3.44,47.43,13.8,38.87,36.32-4.84,12.73-43.5,37.64-56.42,43.14-23.4,9.96-16.82,3.48-33.94-6.7-80.63-47.94-213.39-12.67-249.76,77.74-36.09,89.7-13.93,197.44,88.99,224.15,38.88,10.09,132.5,6.09,148.76-39.56,6.1-17.13,10.23-72.21-9.48-81.35-22.93-10.62-87.55,8.51-111.18,18.67-8.84,3.8-35.77,24.48-25.94-.81,6.05-15.55,48.45-38.42,64.01-45.21,110.59-48.26,230.65-27.83,346.82-20.67,4.27,6.66-13.82,17.7-18.3,20.55-16.73,10.63-39.38,18.75-58.86,22.34-7.21,1.33-38.33,3.39-40.64,5.76-1.44,1.48-2.06,4.13-2.62,6.08-1.58,48.82-26.73,111.16-26.42,158.26.03,4.91,1.31,11.37,3.73,15.67,7.73,13.69,27.22,8.46-.12,25.58-18.47,11.56-93.63,43.29-112.99,40.18-32.64-5.25-13.24-76.99-13.28-99.75-.01-8.43,1.73-13.32-8.76-10.69-10.51,2.63-33.19,16.28-45.44,21.25-76.58,31.06-155.39,48.57-236.31,19.87-63.58-22.55-108.93-78.29-102.91-148.36,1.3-15.13,7.13-17.86,13.51-30.47,4.37-8.64,8.74-16.4,11.32-25.89,3.19-11.73,2.25-27.01,5.11-35.97Z" fill="#0e375f"/>
      <path d="M1431.65,1363.7c2.66-.62,10.52,10.36,11.38,12.3,3.5,7.94,5.74,31.16.38,38.56l-2.09,12.93c-13.87,21.16-31.45,38.48-55.1,48.33l-50.26-7.73c.04-2.34.42-16.72.97-17.39.6-.74,13.77,3.13,18.89,2.93,41.89-1.61,82.1-48.12,75.83-89.93Z" fill="#146696"/>
      <path d="M2114.84,1476.11c22.75-1.67,8.09,6.82,18.06,21,2.89,4.1,13.68,8.57,8.16,12.96-6.38,5.07-42.06,13.85-50.65,13.1-11.38-.99-34.55-14.1-32.4-27.47,1.35-8.42,48.33-18.96,56.84-19.58Z" fill="#0e375f"/>
      <path d="M1349.5,1411.05l15.37-8.3c12.39-8.16,19.07-22.34,16.03-37.1,14.23,18.35-9.17,52.37-31.4,45.39Z" fill="#146696"/>
      <g>
        <path d="M1413.29,1313.44c4.22,4.27,10.3,4.07,15.77,7.91,12.64,8.88,22.71,43.48,32.56,56.85-2.87,18.82-10.03,33.63-20.3,49.3l2.09-12.93c5.36-7.4,3.12-30.62-.38-38.56-.86-1.94-8.72-12.92-11.38-12.3-.48-3.19-4.17-10.87-5.99-13.82-20.73-33.5-66.83-12.06-88.72,8.98-6.76-14.69,17.78-29.78,28.71-35.56,19.37-10.24,27.05-9.15,47.64-9.87Z" fill="#2ad08f"/>
        <path d="M1489.65,1329.87c6.18,3.95,15.05,13.04,18.77,19.41l10.23,27.95c-2.86,8.96-1.92,24.24-5.11,35.97-2.58,9.5-6.95,17.25-11.32,25.89l-24.16-114.06c3.05,1.47,9.04,3.19,11.6,4.83Z" fill="#c8c8cc"/>
        <path d="M1434.55,1307.64c1.53.8,3.77,3.62,5.8,3.87.57.07,1.1-.32.97-.97.68.29,1.32.72,1.93.97,1.95,5.93,7.45,9.96,10.8,15.79,9.63,16.77,10.41,32.26,7.57,50.91-9.85-13.37-19.92-47.97-32.56-56.85-5.47-3.84-11.55-3.64-15.77-7.91,3.41-.12,7.21-.63,10.63-.97.3-.03,1.05,1.05,1.77.75.36-.15,0-1.55.16-1.72.31-.33,2.3.81,1.93-.95-14.74-5.46-27.87-6.75-43.49-4.85-.13-2.21-.05-3.34,2.42-3.87,4.14-.89,26.99-.59,31.91-.02,4.55.53,12.34,3.94,15.93,5.82Z" fill="#035e87"/>
        <path d="M1425.86,1311.5c-.16.17.2,1.57-.16,1.72-.72.3-1.48-.78-1.77-.75l-1.93-.95h3.86Z" fill="#2ad08f"/>
        <path d="M1440.35,1310.54v.97c-2.03-.24-4.27-3.07-5.8-3.87,2.72-.49,4.7,2.4,5.8,2.9Z" fill="#146696"/>
      </g>
      <path d="M2164.17,1699.71c4.62,6.34-12.89,13.41-13.96,12.07-1.24-1.56,11.17-15.91,13.96-12.07Z" fill="#0e375f"/>
    </g>
    <g>
      <path d="M2134.36,1662.37c-3.92.87-13.56.7-14.5,3.87-28.98,2.34-72.11,12.67-70.59-30.48.63-17.79,12.87-55.39,5.65-70.34-2.49-5.16-9.64-6.46-4.38-10.55,4.92-3.82,61.76-16.05,69.84-16.19,5.99-.1,10.96.16,14.42,5.83,9.67,15.86-13.18,67.87-4.77,89.83,6.81,17.78,34.33,5.46,45.48,6.74,5.61.64,3.02,4.73.47,7.33-5.29,5.37-33.16,12.1-41.61,13.97Z" fill="#0e375f"/>
      <path d="M2134.36,1662.37v.97c-2.18.47-9.25,2.86-14.5,3.87v-.97c.94-3.16,10.58-3,14.5-3.87Z" fill="#0e375f"/>
    </g>
  </g>
</svg>